# xmcd
#
# Track frame offsets:
#	150
#	14329
#	30614
#	44736
#	60179
#	78257
#	96051
#	112440
#	132207
#	147726
#	160506
#	176188
#
# Disc length: 2545 seconds
#
# Revision: 1
# Processed by: cddbd v1.5.2PL0 Copyright (c) Steve Scherf et al.
# Submitted via: audiograbber 1.83.01
#
DISCID=a309ef0c
DTITLE=Old Dominion - Old Dominion
DYEAR=2019
DGENRE=Country
TTITLE0=Make It Sweet
TTITLE1=Smooth Sailing
TTITLE2=One Man Band
TTITLE3=Never Be Sorry
TTITLE4=My Heart Is a Bar
TTITLE5=Midnight Mess Around
TTITLE6=Do It With Me
TTITLE7=Hear You Now
TTITLE8=I'll Roll
TTITLE9=American Style
TTITLE10=Paint the Grass Green
TTITLE11=Some People Do
EXTD=
EXTT0=
EXTT1=
EXTT2=
EXTT3=
EXTT4=
EXTT5=
EXTT6=
EXTT7=
EXTT8=
EXTT9=
EXTT10=
EXTT11=
PLAYORDER=
